<svg width="105" height="77" viewBox="0 0 105 77" fill="none" xmlns="http://www.w3.org/2000/svg">
<path d="M19.8677 33.0402C19.8677 33.0402 20.1779 36.0322 22.5869 36.2392C20.1779 36.4462 19.8677 39.4373 19.8677 39.4373C19.8677 39.4373 19.5584 36.4462 17.1494 36.2392C19.5584 36.0331 19.8677 33.0402 19.8677 33.0402Z" fill="#3DB54A"/>
<path d="M24.9417 9.22766C24.9417 9.22766 25.5207 14.7888 30.0176 15.1735C25.5207 15.5582 24.9417 21.1176 24.9417 21.1176C24.9417 21.1176 24.3644 15.5582 19.8676 15.1735C24.3644 14.7905 24.9417 9.22766 24.9417 9.22766Z" fill="#3DB54A"/>
<path d="M67.9448 21.1177C67.9448 21.1177 68.255 24.1097 70.6641 24.3167C68.255 24.5237 67.9448 27.5148 67.9448 27.5148C67.9448 27.5148 67.6356 24.5237 65.2266 24.3167C67.6356 24.1106 67.9448 21.1177 67.9448 21.1177Z" fill="#3DB54A"/>
<path d="M47.2987 0.895752C47.2987 0.895752 47.0149 3.6324 44.8115 3.82172C47.0149 4.01104 47.2987 6.74684 47.2987 6.74684C47.2987 6.74684 47.5815 4.01104 49.785 3.82172C47.5815 3.63325 47.2987 0.895752 47.2987 0.895752Z" fill="#3DB54A"/>
<path d="M69.5577 1.30914C69.5577 1.30914 69.0281 6.39566 64.915 6.74754C69.0281 7.09942 69.5577 12.1844 69.5577 12.1844C69.5577 12.1844 70.0857 7.09942 74.1988 6.74754C70.0857 6.39724 69.5577 1.30914 69.5577 1.30914Z" fill="#3DB54A"/>
<path d="M85.5125 28.7113C85.5125 28.7113 85.2288 31.448 83.0254 31.6373C85.2288 31.8266 85.5125 34.5624 85.5125 34.5624C85.5125 34.5624 85.7954 31.8266 87.9988 31.6373C85.7954 31.4488 85.5125 28.7113 85.5125 28.7113Z" fill="#3DB54A"/>
<path d="M104.194 69.3428C104.194 73.0682 81.0832 76.0883 52.5746 76.0883C24.0659 76.0883 0.955078 73.0682 0.955078 69.3428C0.955078 65.6173 24.0659 65.159 52.5746 65.159C81.0832 65.159 104.194 65.6173 104.194 69.3428Z" fill="#E6F5E8"/>
<path d="M62.4524 34.932H65.999C66.8652 34.932 67.5675 35.6287 67.5675 36.488L67.5558 39.4491H37.2979C36.0454 39.4491 35.0271 38.4388 35.0271 37.1963C35.0271 35.9539 36.0454 34.932 37.2979 34.932H42.1555V33.8521H37.2979C35.4719 33.8521 33.9736 35.3268 33.9502 37.1383V68.6066C33.9502 70.0581 35.1441 71.2425 36.6073 71.2425H70.2246C72.554 71.2425 74.4385 69.3614 74.4385 67.0622V60.0718H76.0889C77.1658 60.0718 78.0437 59.2009 78.0437 58.1326V52.5473C78.032 51.479 77.1541 50.6081 76.0772 50.6081H74.4268V43.6293C74.4268 41.3186 72.5306 39.4491 70.2129 39.4491H68.6444L68.6561 36.4996C68.6561 35.0481 67.4622 33.8637 65.999 33.8637H62.4524V34.932ZM76.0772 51.6764C76.5571 51.6764 76.9434 52.0596 76.9434 52.5357V58.121C76.9434 58.5971 76.5571 58.9803 76.0772 58.9803H65.1914C64.7115 58.9803 64.3252 58.5971 64.3252 58.121V52.5357C64.3252 52.0596 64.7115 51.6764 65.1914 51.6764H76.0772Z" fill="#DF9C43"/>
<path d="M52.1631 44.535C58.7052 44.535 64.0087 39.2738 64.0087 32.7837C64.0087 26.2937 58.7052 21.0325 52.1631 21.0325C45.6209 21.0325 40.3174 26.2937 40.3174 32.7837C40.3174 39.2738 45.6209 44.535 52.1631 44.535Z" fill="#DF9C43"/>
<path d="M60.6736 36.0121C60.6736 36.3721 60.5566 36.7785 60.3225 37.2313C59.6319 38.5783 58.5433 39.6582 57.0684 40.4711C55.6521 41.2607 54.1538 41.6671 52.5854 41.6671C50.1038 41.6671 47.9969 40.8078 46.2528 39.0776C44.5205 37.3475 43.6426 35.2573 43.6426 32.7956C43.6426 30.3339 44.5088 28.2437 46.2528 26.5135C47.9969 24.7834 50.1038 23.9241 52.5854 23.9241C53.791 23.9241 55.0083 24.2028 56.2374 24.7485C57.4547 25.2943 58.4731 26.0258 59.3041 26.9199C60.1937 27.8953 60.6385 28.8127 60.6385 29.6836C60.6385 30.4732 60.2523 31.1002 59.468 31.5415L50.7008 36.5578C51.2978 36.8598 51.9299 37.0107 52.5854 37.0107C53.6037 37.0107 54.4465 36.7204 55.1137 36.1514C55.5702 35.6405 56.0267 35.1296 56.4715 34.607C57.0919 34.0032 57.6654 33.7013 58.2156 33.7013C58.8476 33.7013 59.4212 33.9219 59.9128 34.3748C60.4278 34.8393 60.6736 35.3734 60.6736 36.0121ZM54.4933 29.0217C53.8963 28.7198 53.2643 28.5688 52.5854 28.5688C51.4617 28.5688 50.4901 28.952 49.6708 29.7184C48.8514 30.4848 48.4066 31.4254 48.3481 32.5517L54.4933 29.0217Z" fill="white"/>
<path d="M63.2596 39.4374H40.3057V49.9927H63.2596V39.4374Z" fill="#DF9C43"/>
<path d="M73.3266 57.5405C74.529 57.5405 75.5038 56.5735 75.5038 55.3806C75.5038 54.1878 74.529 53.2208 73.3266 53.2208C72.1242 53.2208 71.1494 54.1878 71.1494 55.3806C71.1494 56.5735 72.1242 57.5405 73.3266 57.5405Z" fill="#DF9C43"/>
</svg>
